<svg width="64" height="24" viewBox="0 0 64 24" fill="none" xmlns="http://www.w3.org/2000/svg">
<path d="M12 0C18.628 0 24 5.37305 24 12C24 18.628 18.628 24 12 24C5.37305 24 0 18.6275 0 12C0 5.37305 5.37305 0 12 0Z" fill="#F5AC37"/>
<path d="M12.4422 12.8472H17.002C17.0992 12.8472 17.1451 12.8472 17.1521 12.7198C17.1894 12.2559 17.1894 11.7894 17.1521 11.325C17.1521 11.2348 17.1073 11.1975 17.0096 11.1975H7.93477C7.82245 11.1975 7.79221 11.2348 7.79221 11.3401V12.675C7.79221 12.8472 7.79221 12.8472 7.97203 12.8472H12.4422ZM16.6429 9.63745C16.6559 9.60343 16.6559 9.56617 16.6429 9.53269C16.5668 9.36691 16.4766 9.20869 16.3718 9.06019C16.2141 8.80638 16.0284 8.57256 15.8167 8.3625C15.7168 8.2356 15.6012 8.12166 15.4716 8.025C14.8225 7.47257 14.0509 7.08161 13.2214 6.88505C12.8029 6.79108 12.3752 6.74626 11.9465 6.75004H7.91911C7.80679 6.75004 7.79167 6.79486 7.79167 6.89261V9.55483C7.79167 9.66715 7.79167 9.69739 7.93423 9.69739H16.5889C16.5889 9.69739 16.664 9.68227 16.6791 9.63745H16.6424H16.6429ZM16.6429 14.4073C16.5155 14.3933 16.3869 14.3933 16.2595 14.4073H7.94233C7.83001 14.4073 7.79221 14.4073 7.79221 14.5574V17.1603C7.79221 17.2801 7.79221 17.3104 7.94233 17.3104H11.7823C11.9659 17.3244 12.1495 17.3115 12.3293 17.2731C12.8866 17.2332 13.4347 17.1122 13.9575 16.9129C14.1475 16.8471 14.3311 16.7612 14.5045 16.6581H14.5569C15.457 16.1899 16.1882 15.4544 16.6494 14.5515C16.6494 14.5515 16.7018 14.4381 16.6429 14.4084V14.4073ZM6.28506 18.6599V18.615V16.8676V16.2752V14.5126C6.28506 14.4149 6.28505 14.4003 6.16517 14.4003H4.5376C4.44742 14.4003 4.41016 14.4003 4.41016 14.2804V12.8553H6.15005C6.24725 12.8553 6.28506 12.8553 6.28506 12.7279V11.3179C6.28506 11.2278 6.28505 11.2056 6.16517 11.2056H4.5376C4.44742 11.2056 4.41016 11.2056 4.41016 11.0857V9.76597C4.41016 9.68335 4.41016 9.66121 4.53004 9.66121H6.14249C6.25481 9.66121 6.28506 9.66121 6.28506 9.51865V5.47617C6.28506 5.35629 6.28505 5.32605 6.43518 5.32605H12.0599C12.4681 5.34225 12.8737 5.38707 13.2749 5.46105C14.1016 5.61387 14.896 5.90926 15.6223 6.331C16.104 6.6145 16.5473 6.95687 16.9421 7.35107C17.2391 7.65941 17.5069 7.99314 17.7445 8.34846C17.9805 8.70864 18.1765 9.09367 18.3304 9.49597C18.3493 9.60073 18.4498 9.67147 18.5545 9.65365H19.897C20.0692 9.65365 20.0692 9.65365 20.0768 9.8189V11.049C20.0768 11.1689 20.032 11.1991 19.9116 11.1991H18.8764C18.7716 11.1991 18.7414 11.1991 18.7489 11.3342C18.79 11.791 18.79 12.2495 18.7489 12.7063C18.7489 12.8337 18.7489 12.8489 18.892 12.8489H20.0763C20.1286 12.9164 20.0763 12.9839 20.0763 13.0519C20.0838 13.1388 20.0838 13.2269 20.0763 13.3138V14.2216C20.0763 14.349 20.039 14.3868 19.9261 14.3868H18.5086C18.4098 14.3679 18.3137 14.4311 18.291 14.5294C17.9535 15.4069 17.4135 16.1937 16.7158 16.8244C16.4609 17.0539 16.1931 17.2699 15.9134 17.4692C15.6131 17.642 15.321 17.8218 15.0132 17.9643C14.4467 18.2192 13.8527 18.4071 13.243 18.5265C12.6641 18.6302 12.0772 18.6771 11.488 18.669H6.28289V18.6615L6.28506 18.6599Z" fill="#FEFEFD"/>
<path d="M32 24C38.65 24 44 18.65 44 12C44 5.34996 38.65 0 32 0C25.35 0 20 5.34996 20 12C20 18.65 25.35 24 32 24Z" fill="#2775CA"/>
<path d="M35.2996 13.9C35.2996 12.15 34.2496 11.55 32.1496 11.3001C30.6496 11.1 30.3496 10.7001 30.3496 9.99998C30.3496 9.2999 30.8496 8.85002 31.8496 8.85002C32.7496 8.85002 33.2496 9.15002 33.4996 9.90002C33.5496 10.05 33.6996 10.15 33.8496 10.15H34.6495C34.8496 10.15 34.9996 9.99998 34.9996 9.80006V9.75002C34.7995 8.64998 33.8995 7.80002 32.7496 7.70006V6.50006C32.7496 6.30002 32.5996 6.15002 32.3496 6.09998H31.5996C31.3996 6.09998 31.2496 6.24998 31.1995 6.50006V7.65002C29.6995 7.85006 28.7496 8.85002 28.7496 10.1001C28.7496 11.7501 29.7496 12.4 31.8496 12.6501C33.2496 12.9 33.6996 13.2 33.6996 14.0001C33.6996 14.8001 32.9995 15.3501 32.0496 15.3501C30.7495 15.3501 30.2995 14.8 30.1495 14.05C30.0996 13.8501 29.9496 13.75 29.7996 13.75H28.9495C28.7496 13.75 28.5996 13.9 28.5996 14.1V14.1501C28.7995 15.4 29.5996 16.3 31.2496 16.5501V17.7501C31.2496 17.95 31.3996 18.1 31.6495 18.15H32.3995C32.5996 18.15 32.7496 18 32.7996 17.7501V16.5501C34.2996 16.3 35.2996 15.25 35.2996 13.9Z" fill="white"/>
<path d="M29.451 19.15C25.551 17.7501 23.5509 13.4001 25.001 9.54998C25.751 7.44998 27.401 5.85002 29.451 5.10002C29.651 5.00006 29.751 4.85006 29.751 4.59998V3.90002C29.751 3.69998 29.651 3.54998 29.451 3.50006C29.4009 3.50006 29.301 3.50006 29.2509 3.54998C24.501 5.04998 21.9009 10.1001 23.4009 14.85C24.3009 17.65 26.451 19.8 29.2509 20.7C29.451 20.8 29.651 20.7 29.7009 20.5C29.751 20.4501 29.751 20.4 29.751 20.3001V19.6C29.751 19.45 29.601 19.2501 29.451 19.15ZM34.751 3.54998C34.551 3.45002 34.3509 3.54998 34.301 3.75002C34.251 3.80006 34.251 3.84998 34.251 3.95006V4.65002C34.251 4.85006 34.401 5.04998 34.551 5.15006C38.451 6.54998 40.451 10.9 39.0009 14.7501C38.2509 16.8501 36.6009 18.45 34.551 19.2C34.3509 19.3 34.251 19.45 34.251 19.7001V20.4C34.251 20.6001 34.3509 20.7501 34.551 20.8C34.601 20.8 34.701 20.8 34.751 20.7501C39.501 19.2501 42.101 14.2 40.601 9.45002C39.701 6.60002 37.5009 4.44998 34.751 3.54998Z" fill="white"/>
<g clip-path="url(#clip0_2121_26849)">
<path fill-rule="evenodd" clip-rule="evenodd" d="M44.394 1.60254L40.018 10.7944C40.0013 10.8286 39.9961 10.8672 40.0029 10.9046C40.0098 10.942 40.0285 10.9763 40.0562 11.0023L51.8748 22.3274C51.9084 22.3596 51.9531 22.3776 51.9996 22.3776C52.0461 22.3776 52.0908 22.3596 52.1244 22.3274L63.943 11.003C63.9708 10.977 63.9894 10.9427 63.9963 10.9053C64.0032 10.8679 63.9979 10.8293 63.9812 10.7951L59.6052 1.60325C59.5911 1.57238 59.5683 1.54622 59.5398 1.52792C59.5112 1.50961 59.4779 1.49992 59.444 1.50001H44.5567C44.5225 1.49959 44.489 1.50904 44.4602 1.52724C44.4313 1.54543 44.4084 1.57158 44.394 1.60254Z" fill="#50AF95"/>
<path fill-rule="evenodd" clip-rule="evenodd" d="M53.5186 11.7384C53.4338 11.7447 52.9954 11.7709 52.0175 11.7709C51.2397 11.7709 50.6875 11.7475 50.4938 11.7384C47.488 11.6061 45.2445 11.0829 45.2445 10.4564C45.2445 9.82998 47.488 9.30745 50.4938 9.17311V11.2172C50.6903 11.2314 51.2532 11.2646 52.0309 11.2646C52.9643 11.2646 53.4317 11.2257 53.5158 11.218V9.17452C56.5152 9.30816 58.7538 9.83139 58.7538 10.4564C58.7538 11.0815 56.5159 11.6047 53.5158 11.7376L53.5186 11.7384ZM53.5186 8.96311V7.13393H57.7045V4.34454H46.3079V7.13393H50.4931V8.9624C47.0914 9.11867 44.5332 9.7925 44.5332 10.6C44.5332 11.4074 47.0914 12.0806 50.4931 12.2375V18.0991H53.5179V12.2354C56.9118 12.0792 59.4658 11.406 59.4658 10.5993C59.4658 9.7925 56.914 9.11937 53.5179 8.9624L53.5186 8.96311Z" fill="white"/>
</g>
<defs>
<clipPath id="clip0_2121_26849">
<rect width="24" height="20.8776" fill="white" transform="translate(40 1.5)"/>
</clipPath>
</defs>
</svg>
