<svg width="36" height="25" viewBox="0 0 36 25" fill="none" xmlns="http://www.w3.org/2000/svg">
<circle cx="12" cy="13" r="10" fill="white"/>
<path d="M11.7002 1.00106C10.2391 1.04471 8.89667 1.31772 7.57873 1.8387C5.53546 2.64666 3.73144 4.0245 2.40303 5.79118C0.996604 7.6609 0.175803 9.8758 0.022703 12.2089C0.0040749 12.4993 0 12.6361 0 13.0005C0 13.3649 0.0040749 13.5017 0.022703 13.7922C0.209566 16.641 1.3942 19.3053 3.38857 21.3613C4.51033 22.5173 5.8632 23.4429 7.34006 24.0651C8.56952 24.5826 9.87057 24.8894 11.2083 24.9773C11.4988 24.9959 11.6356 25 12 25C12.3644 25 12.5012 24.9959 12.7917 24.9773C14.0241 24.8964 15.2256 24.6298 16.3689 24.1827C18.4378 23.3748 20.2563 21.9923 21.597 20.2099C22.6064 18.8675 23.3218 17.3337 23.695 15.7131C23.8609 14.9942 23.9523 14.3167 23.993 13.5186C24.0023 13.3317 24.0023 12.6693 23.993 12.4825C23.9691 12.0162 23.9342 11.6471 23.8754 11.2437C23.5116 8.76049 22.3683 6.44663 20.6114 4.64036C18.9943 2.97729 16.951 1.8224 14.7127 1.30608C14.0002 1.14193 13.3086 1.04762 12.5297 1.0092C12.4104 1.00338 11.8213 0.997564 11.7002 1.00106ZM12.1193 4.26316C13.5508 4.32021 14.892 4.69974 16.1127 5.39419C16.3567 5.53273 16.5639 5.66428 16.6035 5.70503C16.6605 5.76382 16.6832 5.82785 16.6791 5.91866C16.6739 6.02984 16.6512 6.06594 16.5173 6.17304C15.9527 6.6265 15.4287 7.1696 14.9933 7.75287C14.6987 8.14695 14.4642 8.52125 14.2243 8.97936C14.1795 9.06493 14.1539 9.09403 14.1015 9.12081C14.0514 9.14642 14.0118 9.15399 13.9472 9.15166L13.8878 9.14992L13.7371 9.07599C13.492 8.95608 13.3133 8.88448 13.0828 8.81462C11.8859 8.45023 10.5924 8.61205 9.53294 9.25877C8.68303 9.77801 8.0392 10.5638 7.69691 11.501C7.34879 12.4551 7.34879 13.546 7.69691 14.5C7.76851 14.695 7.82148 14.8167 7.92044 15.0099C8.30756 15.7667 8.92403 16.4041 9.67323 16.8244C10.8049 17.4589 12.1775 17.5526 13.3913 17.0793C13.5095 17.0333 13.5828 17.0007 13.7371 16.9251L13.8878 16.8511L13.9472 16.8494C14.0118 16.8471 14.0514 16.8546 14.1015 16.8802C14.1539 16.907 14.1795 16.9361 14.2243 17.0217C14.4642 17.4798 14.6987 17.8541 14.9933 18.2482C15.4287 18.8315 15.9527 19.3746 16.5173 19.828C16.618 19.9089 16.6419 19.9351 16.6634 19.9904C16.6815 20.0364 16.6856 20.1278 16.6716 20.1755C16.646 20.2634 16.6081 20.3053 16.4853 20.3833C15.9625 20.7128 15.4421 20.973 14.8844 21.1837C13.5281 21.6954 12.053 21.8601 10.6058 21.6616C9.42932 21.5004 8.30581 21.1028 7.28767 20.487C6.49597 20.0085 5.78345 19.4048 5.17454 18.6964C4.51208 17.9257 3.98816 17.0432 3.63015 16.0944C3.25876 15.1095 3.07015 14.0687 3.07015 13.0005C3.07015 11.3898 3.49976 9.84145 4.32696 8.47468C4.80547 7.68302 5.40914 6.97052 6.11759 6.36164C6.88833 5.69921 7.77084 5.17532 8.7197 4.81732C9.59464 4.48727 10.5156 4.30158 11.4644 4.26374C11.6338 4.25676 11.9546 4.25676 12.1193 4.26316ZM18.5973 8.69995C18.95 8.92872 19.2725 9.19881 19.5584 9.505C20.307 10.3054 20.7785 11.3293 20.8973 12.4126C20.9235 12.6513 20.9269 12.717 20.9269 13.0122C20.9269 13.3073 20.9235 13.3731 20.8973 13.6117C20.8396 14.1368 20.6964 14.6584 20.4781 15.1415C20.0829 16.0129 19.4478 16.7592 18.6485 17.29C18.5018 17.3878 18.5123 17.3826 18.4896 17.3692C18.4471 17.3448 18.2602 17.2184 18.1828 17.162C17.9371 16.9833 17.6723 16.7481 17.458 16.5193C16.7094 15.7184 16.2379 14.695 16.1191 13.6117C16.0929 13.3731 16.0895 13.3073 16.0895 13.0122C16.0895 12.717 16.0929 12.6513 16.1191 12.4126C16.2228 11.4673 16.5959 10.5638 17.192 9.81351C17.4935 9.4334 17.8801 9.07017 18.2695 8.80007C18.3784 8.72498 18.4989 8.64698 18.507 8.6464C18.5117 8.6464 18.5524 8.67026 18.5973 8.69995Z" fill="#3B0065"/>
<g clip-path="url(#clip0_2793_38959)">
<path d="M24 24.5C30.65 24.5 36 19.15 36 12.5C36 5.84996 30.65 0.5 24 0.5C17.35 0.5 12 5.84996 12 12.5C12 19.15 17.35 24.5 24 24.5Z" fill="#2775CA"/>
<path d="M27.3001 14.4001C27.3001 12.6501 26.2501 12.0501 24.1501 11.8002C22.6501 11.6001 22.3501 11.2002 22.3501 10.5001C22.3501 9.80002 22.8501 9.35014 23.8501 9.35014C24.7501 9.35014 25.2501 9.65014 25.5001 10.4001C25.5501 10.5501 25.7001 10.6501 25.8501 10.6501H26.65C26.8501 10.6501 27.0001 10.5001 27.0001 10.3002V10.2501C26.8 9.1501 25.9 8.30014 24.7501 8.20018V7.00018C24.7501 6.80014 24.6001 6.65014 24.3501 6.6001H23.6001C23.4001 6.6001 23.2501 6.7501 23.2 7.00018V8.15014C21.7 8.35018 20.7501 9.35014 20.7501 10.6002C20.7501 12.2502 21.7501 12.9001 23.8501 13.1502C25.2501 13.4001 25.7001 13.7001 25.7001 14.5002C25.7001 15.3002 25 15.8502 24.0501 15.8502C22.75 15.8502 22.3 15.3001 22.15 14.5501C22.1001 14.3502 21.9501 14.2501 21.8001 14.2501H20.95C20.7501 14.2501 20.6001 14.4001 20.6001 14.6001V14.6502C20.8 15.9001 21.6001 16.8001 23.2501 17.0502V18.2502C23.2501 18.4501 23.4001 18.6001 23.65 18.6501H24.4C24.6001 18.6501 24.7501 18.5001 24.8001 18.2502V17.0502C26.3001 16.8001 27.3001 15.7501 27.3001 14.4001Z" fill="white"/>
<path d="M21.45 19.6499C17.55 18.25 15.55 13.9 17 10.0499C17.75 7.94992 19.4 6.34996 21.45 5.59996C21.65 5.5 21.75 5.35 21.75 5.09992V4.39996C21.75 4.19992 21.65 4.04992 21.45 4C21.4 4 21.3 4 21.25 4.04992C16.5 5.54992 13.9 10.6 15.4 15.35C16.3 18.1499 18.45 20.3 21.25 21.2C21.45 21.2999 21.65 21.2 21.7 20.9999C21.75 20.95 21.75 20.9 21.75 20.8V20.0999C21.75 19.9499 21.6 19.75 21.45 19.6499ZM26.75 4.04992C26.55 3.94996 26.35 4.04992 26.3 4.24996C26.25 4.3 26.25 4.34992 26.25 4.45V5.14996C26.25 5.35 26.4 5.54992 26.55 5.65C30.45 7.04992 32.45 11.3999 31 15.25C30.25 17.35 28.6 18.95 26.55 19.7C26.35 19.7999 26.25 19.9499 26.25 20.2V20.9C26.25 21.1 26.35 21.25 26.55 21.2999C26.6 21.2999 26.7 21.2999 26.75 21.25C31.5 19.75 34.1 14.6999 32.6 9.94996C31.7 7.09996 29.5 4.94992 26.75 4.04992Z" fill="white"/>
</g>
<defs>
<clipPath id="clip0_2793_38959">
<rect width="24" height="24" fill="white" transform="translate(12 0.5)"/>
</clipPath>
</defs>
</svg>
