<svg width="24" height="24" viewBox="0 0 24 24" fill="none" xmlns="http://www.w3.org/2000/svg">
<circle cx="12" cy="12" r="10" fill="white"/>
<path d="M11.7002 0.00105667C10.2391 0.044714 8.89667 0.31772 7.57873 0.838703C5.53546 1.64666 3.73144 3.0245 2.40303 4.79118C0.996604 6.6609 0.175803 8.8758 0.022703 11.2089C0.0040749 11.4993 0 11.6361 0 12.0005C0 12.3649 0.0040749 12.5017 0.022703 12.7922C0.209566 15.641 1.3942 18.3053 3.38857 20.3613C4.51033 21.5173 5.8632 22.4429 7.34006 23.0651C8.56952 23.5826 9.87057 23.8894 11.2083 23.9773C11.4988 23.9959 11.6356 24 12 24C12.3644 24 12.5012 23.9959 12.7917 23.9773C14.0241 23.8964 15.2256 23.6298 16.3689 23.1827C18.4378 22.3748 20.2563 20.9923 21.597 19.2099C22.6064 17.8675 23.3218 16.3337 23.695 14.7131C23.8609 13.9942 23.9523 13.3167 23.993 12.5186C24.0023 12.3317 24.0023 11.6693 23.993 11.4825C23.9691 11.0162 23.9342 10.6471 23.8754 10.2437C23.5116 7.76049 22.3683 5.44663 20.6114 3.64036C18.9943 1.97729 16.951 0.822403 14.7127 0.306078C14.0002 0.141926 13.3086 0.0476246 12.5297 0.00920486C12.4104 0.00338364 11.8213 -0.00243568 11.7002 0.00105667ZM12.1193 3.26316C13.5508 3.32021 14.892 3.69974 16.1127 4.39419C16.3567 4.53273 16.5639 4.66428 16.6035 4.70503C16.6605 4.76382 16.6832 4.82785 16.6791 4.91866C16.6739 5.02984 16.6512 5.06594 16.5173 5.17304C15.9527 5.6265 15.4287 6.1696 14.9933 6.75287C14.6987 7.14695 14.4642 7.52125 14.2243 7.97936C14.1795 8.06493 14.1539 8.09403 14.1015 8.12081C14.0514 8.14642 14.0118 8.15399 13.9472 8.15166L13.8878 8.14992L13.7371 8.07599C13.492 7.95608 13.3133 7.88448 13.0828 7.81462C11.8859 7.45023 10.5924 7.61205 9.53294 8.25877C8.68303 8.77801 8.0392 9.56384 7.69691 10.501C7.34879 11.4551 7.34879 12.546 7.69691 13.5C7.76851 13.695 7.82148 13.8167 7.92044 14.0099C8.30756 14.7667 8.92403 15.4041 9.67323 15.8244C10.8049 16.4589 12.1775 16.5526 13.3913 16.0793C13.5095 16.0333 13.5828 16.0007 13.7371 15.9251L13.8878 15.8511L13.9472 15.8494C14.0118 15.8471 14.0514 15.8546 14.1015 15.8802C14.1539 15.907 14.1795 15.9361 14.2243 16.0217C14.4642 16.4798 14.6987 16.8541 14.9933 17.2482C15.4287 17.8315 15.9527 18.3746 16.5173 18.828C16.618 18.9089 16.6419 18.9351 16.6634 18.9904C16.6815 19.0364 16.6856 19.1278 16.6716 19.1755C16.646 19.2634 16.6081 19.3053 16.4853 19.3833C15.9625 19.7128 15.4421 19.973 14.8844 20.1837C13.5281 20.6954 12.053 20.8601 10.6058 20.6616C9.42932 20.5004 8.30581 20.1028 7.28767 19.487C6.49597 19.0085 5.78345 18.4048 5.17454 17.6964C4.51208 16.9257 3.98816 16.0432 3.63015 15.0944C3.25876 14.1095 3.07015 13.0687 3.07015 12.0005C3.07015 10.3898 3.49976 8.84145 4.32696 7.47468C4.80547 6.68302 5.40914 5.97052 6.11759 5.36164C6.88833 4.69921 7.77084 4.17532 8.7197 3.81732C9.59464 3.48727 10.5156 3.30158 11.4644 3.26374C11.6338 3.25676 11.9546 3.25676 12.1193 3.26316ZM18.5973 7.69995C18.95 7.92872 19.2725 8.19881 19.5584 8.505C20.307 9.30539 20.7785 10.3293 20.8973 11.4126C20.9235 11.6513 20.9269 11.717 20.9269 12.0122C20.9269 12.3073 20.9235 12.3731 20.8973 12.6117C20.8396 13.1368 20.6964 13.6584 20.4781 14.1415C20.0829 15.0129 19.4478 15.7592 18.6485 16.29C18.5018 16.3878 18.5123 16.3826 18.4896 16.3692C18.4471 16.3448 18.2602 16.2184 18.1828 16.162C17.9371 15.9833 17.6723 15.7481 17.458 15.5193C16.7094 14.7184 16.2379 13.695 16.1191 12.6117C16.0929 12.3731 16.0895 12.3073 16.0895 12.0122C16.0895 11.717 16.0929 11.6513 16.1191 11.4126C16.2228 10.4673 16.5959 9.56384 17.192 8.81351C17.4935 8.4334 17.8801 8.07017 18.2695 7.80007C18.3784 7.72498 18.4989 7.64698 18.507 7.6464C18.5117 7.6464 18.5524 7.67026 18.5973 7.69995Z" fill="#3B0065"/>
</svg>
