<svg width="40" height="40" viewBox="0 0 40 40" fill="none" xmlns="http://www.w3.org/2000/svg">
    <path fill-rule="evenodd" clip-rule="evenodd"
        d="M0 39.9869H9.09109L10.7561 34.9602L0 31.3741V39.9869ZM12.1475 35.43L10.631 39.9869H29.7825L31.4475 34.9602L14.2503 29.2053L12.1866 35.4691L12.1475 35.43ZM34.9026 29.1661L31.3224 39.9869H39.9211V30.8809L34.9026 29.2053V29.1661ZM6.40206 31.9614L11.2251 33.5743L12.8276 28.7433L8.00453 27.1382L6.40206 31.9614ZM28.6959 27.1382L27.0935 31.9614L31.9087 33.5743L33.519 28.7433L28.6959 27.1382ZM0 29.8317L5.01065 31.4994L10.7561 14.2738L0 10.6486V29.8317ZM12.1475 14.7044L8.47355 25.7445L25.6708 31.4994L31.4162 14.2738L14.219 8.52669L12.1553 14.7436L12.1475 14.7044ZM32.8389 14.7044L29.1571 25.7445L39.9211 29.3384V10.1788L34.9026 8.51103L32.8311 14.7044H32.8389ZM8.00453 6.41263L6.40206 11.2436L11.2251 12.8488L12.8276 8.01775L8.00453 6.41263ZM28.6959 6.41263L27.0935 11.2436L31.9087 12.8488L33.519 8.01775L28.6959 6.41263ZM8.59862 0H0V9.10609L5.01065 10.7738L8.59862 0ZM27.7735 4.55696L29.29 0H10.162L8.47355 5.01892L25.6708 10.7738L27.7735 4.55696ZM30.83 0L29.1571 5.01892L39.9211 8.61281V0H30.83Z"
        fill="white" />
</svg>