<?xml version="1.0" encoding="UTF-8" standalone="no"?>
<!DOCTYPE svg PUBLIC "-//W3C//DTD SVG 1.1//EN" "http://www.w3.org/Graphics/SVG/1.1/DTD/svg11.dtd">
<svg width="100%" height="100%" viewBox="0 0 32 32" version="1.1" xmlns="http://www.w3.org/2000/svg" xmlns:xlink="http://www.w3.org/1999/xlink" xml:space="preserve" xmlns:serif="http://www.serif.com/" style="fill-rule:evenodd;clip-rule:evenodd;stroke-linejoin:round;stroke-miterlimit:2;">
    <g transform="matrix(1,0,0,1,-1,0)">
        <path d="M33,0L1,0L1,32L33,32L33,0ZM20.002,25.666L13.676,25.666C11.516,25.666 9.909,25.234 8.854,24.37C7.817,23.506 7.299,22.175 7.299,20.377L7.299,12.314C7.299,10.517 7.817,9.186 8.854,8.322C9.909,7.44 11.516,7 13.676,7L20.002,7C20.331,7 20.564,7.077 20.702,7.233C20.858,7.371 20.936,7.604 20.936,7.933L20.936,11.07C20.936,11.398 20.858,11.64 20.702,11.796C20.564,11.934 20.331,12.003 20.002,12.003L14.791,12.003C14.255,12.003 13.858,12.116 13.599,12.34C13.339,12.548 13.21,12.867 13.21,13.3L13.21,19.47C13.21,19.902 13.339,20.222 13.599,20.429C13.858,20.619 14.255,20.714 14.791,20.714L20.002,20.714C20.331,20.714 20.564,20.792 20.702,20.948C20.858,21.086 20.936,21.319 20.936,21.648L20.936,24.733C20.936,25.061 20.858,25.303 20.702,25.459C20.564,25.597 20.331,25.666 20.002,25.666ZM26.907,20.222L23.467,20.222C23.251,20.222 23.092,20.146 22.99,19.995C22.899,19.826 22.853,19.562 22.853,19.204L22.853,13.462C22.853,13.104 22.899,12.849 22.99,12.698C23.092,12.529 23.251,12.444 23.467,12.444L26.907,12.444C27.123,12.444 27.276,12.529 27.367,12.698C27.469,12.849 27.52,13.104 27.52,13.462L27.52,19.204C27.52,19.562 27.469,19.826 27.367,19.995C27.276,20.146 27.123,20.222 26.907,20.222Z" style="fill:#200534;"/>
    </g>
</svg>
