<svg width="24" height="24" viewBox="0 0 24 24" fill="none" xmlns="http://www.w3.org/2000/svg">
<circle cx="12" cy="12" r="10" fill="white"/>
<path d="M11.6968 0.00699043C10.2361 0.0506382 8.89408 0.323576 7.57653 0.844429C5.53385 1.65219 3.73036 3.02969 2.40233 4.79593C0.996314 6.66518 0.175752 8.87954 0.0226964 11.212C0.00407371 11.5024 0 11.6392 0 12.0035C0 12.3678 0.00407371 12.5046 0.0226964 12.795C0.209505 15.6431 1.39379 18.3067 3.38758 20.3622C4.50902 21.5179 5.86149 22.4433 7.33792 23.0654C8.56702 23.5827 9.8677 23.8894 11.205 23.9773C11.4954 23.9959 11.6322 24 11.9965 24C12.3608 24 12.4976 23.9959 12.788 23.9773C14.02 23.8964 15.2211 23.6299 16.3641 23.1829C18.4324 22.3752 20.2504 20.993 21.5907 19.2111C22.5998 17.8691 23.315 16.3356 23.6881 14.7154C23.8539 13.9967 23.9453 13.3193 23.986 12.5214C23.9953 12.3346 23.9953 11.6724 23.986 11.4856C23.9622 11.0194 23.9272 10.6504 23.8685 10.2471C23.5047 7.76451 22.3618 5.45122 20.6054 3.6454C18.9887 1.98274 16.9461 0.828135 14.7084 0.311937C13.9961 0.147823 13.3047 0.0535469 12.5261 0.0151367C12.4068 0.0093174 11.8178 0.00349808 11.6968 0.00699043ZM12.1158 3.26829C13.5468 3.32532 14.8877 3.70476 16.108 4.39903C16.3519 4.53754 16.5591 4.66906 16.5986 4.7098C16.6557 4.76858 16.6784 4.83259 16.6743 4.92338C16.6691 5.03453 16.6464 5.07062 16.5125 5.1777C15.948 5.63104 15.4242 6.17401 14.9889 6.75713C14.6945 7.15112 14.4599 7.52532 14.2202 7.98332C14.1754 8.06887 14.1498 8.09797 14.0974 8.12474C14.0473 8.15034 14.0078 8.15791 13.9432 8.15558L13.8838 8.15384L13.7331 8.07993C13.4881 7.96004 13.3094 7.88846 13.0789 7.81863C11.8824 7.45432 10.5893 7.61611 9.53016 8.26266C8.6805 8.78177 8.03685 9.56741 7.69466 10.5044C7.34665 11.4582 7.34665 12.5488 7.69466 13.5026C7.76624 13.6976 7.8192 13.8192 7.91814 14.0124C8.30514 14.769 8.92143 15.4062 9.67041 15.8264C10.8017 16.4607 12.174 16.5544 13.3874 16.0813C13.5055 16.0353 13.5789 16.0027 13.7331 15.9271L13.8838 15.8532L13.9432 15.8514C14.0078 15.8491 14.0473 15.8566 14.0974 15.8823C14.1498 15.909 14.1754 15.9381 14.2202 16.0237C14.4599 16.4817 14.6945 16.8559 14.9889 17.2499C15.4242 17.833 15.948 18.3759 16.5125 18.8293C16.6132 18.9102 16.637 18.9364 16.6586 18.9917C16.6766 19.0376 16.6807 19.129 16.6667 19.1767C16.6411 19.2646 16.6033 19.3065 16.4805 19.3845C15.9579 19.7139 15.4376 19.974 14.8801 20.1847C13.5241 20.6962 12.0495 20.8609 10.6027 20.6625C9.42657 20.5013 8.30339 20.1038 7.28555 19.4881C6.49408 19.0097 5.78176 18.4062 5.17303 17.698C4.51077 16.9275 3.987 16.0452 3.6291 15.0966C3.25781 14.1119 3.06925 13.0714 3.06925 12.0035C3.06925 10.3932 3.49874 8.8452 4.3257 7.47876C4.80407 6.6873 5.40756 5.97498 6.11581 5.36625C6.88632 4.70398 7.76857 4.18022 8.71717 3.82231C9.59185 3.49234 10.5125 3.3067 11.4611 3.26887C11.6305 3.26189 11.9511 3.26189 12.1158 3.26829ZM18.5918 7.70398C18.9445 7.93269 19.2669 8.20272 19.5527 8.50883C20.3011 9.30902 20.7724 10.3327 20.8912 11.4157C20.9174 11.6543 20.9208 11.7201 20.9208 12.0151C20.9208 12.3102 20.9174 12.3759 20.8912 12.6146C20.8336 13.1395 20.6904 13.6609 20.4722 14.1439C20.077 15.0151 19.4421 15.7612 18.6431 16.292C18.4964 16.3897 18.5069 16.3845 18.4842 16.3711C18.4417 16.3467 18.2549 16.2204 18.1775 16.1639C17.9319 15.9853 17.6671 15.7501 17.453 15.5214C16.7046 14.7207 16.2332 13.6976 16.1144 12.6146C16.0883 12.3759 16.0848 12.3102 16.0848 12.0151C16.0848 11.7201 16.0883 11.6543 16.1144 11.4157C16.218 10.4706 16.5911 9.56741 17.187 8.81727C17.4885 8.43725 17.8749 8.07411 18.2642 7.80408C18.373 7.72901 18.4935 7.65102 18.5016 7.65044C18.5063 7.65044 18.547 7.6743 18.5918 7.70398Z" fill="#DE1A60"/>
<path d="M4.37924 23.965C6.79783 23.965 8.75849 22.0044 8.75849 19.5858C8.75849 17.1672 6.79783 15.2065 4.37924 15.2065C1.96065 15.2065 0 17.1672 0 19.5858C0 22.0044 1.96065 23.965 4.37924 23.965Z" fill="#3B0065"/>
<path d="M6.87922 21.7861C6.90901 21.8259 6.92888 21.8557 6.93881 21.8755C6.96364 21.9053 6.97605 21.9302 6.97605 21.95C6.98102 21.9699 6.9835 21.9823 6.9835 21.9873C6.9835 22.0121 6.97854 22.0394 6.9686 22.0692C6.95867 22.094 6.94129 22.1189 6.91646 22.1437C6.89163 22.1636 6.86183 22.176 6.82707 22.1809C6.78734 22.1909 6.75755 22.1958 6.73768 22.1958H5.7842C5.72958 22.1958 5.6824 22.1884 5.64267 22.1735C5.60294 22.1536 5.56322 22.1189 5.52349 22.0692L4.36144 20.5719L3.19938 22.0915C3.14476 22.1611 3.07275 22.1958 2.98336 22.1958H2.01498C1.99512 22.1958 1.96532 22.1909 1.9256 22.1809C1.86104 22.171 1.81883 22.1437 1.79896 22.099C1.7791 22.0493 1.76917 22.0121 1.76917 21.9873C1.76917 21.9475 1.78406 21.9103 1.81386 21.8755C1.82379 21.8557 1.84366 21.8259 1.87345 21.7861L3.58673 19.5663L1.83621 17.2943C1.82131 17.2496 1.81386 17.2074 1.81386 17.1677C1.81386 17.1379 1.82131 17.1006 1.83621 17.0559C1.8511 17.0063 1.90821 16.9814 2.00753 16.9814H3.0355C3.07523 16.9814 3.10751 16.9864 3.13234 16.9963C3.16214 17.0063 3.18945 17.0261 3.21428 17.0559L4.36144 18.5532L5.50859 17.0857C5.53342 17.046 5.56322 17.0187 5.59798 17.0038C5.63771 16.9889 5.67992 16.9814 5.72461 16.9814H6.67809C6.70789 16.9814 6.74762 16.9864 6.79728 16.9963C6.8519 17.0013 6.88666 17.0187 6.90156 17.0485C6.91646 17.0783 6.92391 17.1081 6.92391 17.1379C6.92391 17.1428 6.92143 17.1577 6.91646 17.1826C6.91646 17.2074 6.90653 17.2397 6.88666 17.2794C6.8668 17.3191 6.84694 17.3514 6.82707 17.3762L5.14359 19.5663L6.87922 21.7861Z" fill="white"/>
</svg>
