<svg width="26" height="30" viewBox="0 0 26 30" fill="none" xmlns="http://www.w3.org/2000/svg">
<path d="M15.9838 13.8533L18.0638 10.3239L23.6702 19.056L23.6729 20.7319L23.6546 9.20023C23.6413 8.91834 23.4916 8.66049 23.2528 8.5084L13.1592 2.70239C12.9232 2.5863 12.6237 2.58764 12.388 2.70606C12.3561 2.72193 12.3262 2.73932 12.2977 2.75827L12.2625 2.78038L2.46507 8.45788L2.42709 8.47515C2.3782 8.49761 2.32873 8.5262 2.28241 8.55939C2.09661 8.69258 1.97329 8.88958 1.93338 9.11056C1.92737 9.14405 1.92294 9.17812 1.9209 9.21259L1.9363 18.6097L7.15836 10.5157C7.81587 9.4425 9.24829 9.09679 10.5781 9.11558L12.1388 9.15676L2.94279 23.9045L4.02681 24.5286L13.3329 9.17176L17.4462 9.15682L8.16415 24.9012L12.0323 27.126L12.4944 27.3918C12.6899 27.4713 12.9204 27.4753 13.1175 27.4041L23.3529 21.4725L21.3961 22.6064L15.9838 13.8533ZM16.7773 25.2831L12.8706 19.1513L15.2554 15.1044L20.3863 23.1916L16.7773 25.2831Z" fill="#2D374B"/>
<path d="M12.8706 19.1513L16.7773 25.2831L20.3864 23.1915L15.2554 15.1044L12.8706 19.1513Z" fill="#28A0F0"/>
<path d="M23.6729 20.7319L23.6702 19.056L18.0638 10.3239L15.9839 13.8533L21.3961 22.6064L23.3529 21.4724C23.5449 21.3165 23.661 21.0877 23.6732 20.8409L23.6729 20.7319Z" fill="#28A0F0"/>
<path d="M0.179443 22.3122L2.94282 23.9046L12.1387 9.15684L10.5781 9.11565C9.24825 9.09686 7.81578 9.44257 7.15832 10.5158L1.93627 18.6098L0.179443 21.3091V22.3122Z" fill="white"/>
<path d="M17.4463 9.15686L13.3329 9.17179L4.02686 24.5286L7.27962 26.4014L8.16419 24.9012L17.4463 9.15686Z" fill="white"/>
<path d="M25.4063 9.13568C25.3719 8.27544 24.9061 7.48794 24.1766 7.02947L13.9506 1.14878C13.229 0.785396 12.3274 0.784929 11.6044 1.14855C11.519 1.19166 1.65998 6.90947 1.65998 6.90947C1.52353 6.97492 1.3921 7.05286 1.26848 7.14136C0.617206 7.60812 0.220221 8.33348 0.179443 9.13037V21.3092L1.93627 18.6098L1.92093 9.21268C1.92297 9.17832 1.92728 9.14449 1.93341 9.11112C1.97314 8.89002 2.09658 8.69278 2.28244 8.55948C2.32882 8.52629 12.3562 2.72202 12.3881 2.70609C12.6238 2.58773 12.9233 2.58633 13.1593 2.70242L23.2529 8.50832C23.4917 8.6604 23.6414 8.91825 23.6547 9.20014V20.8409C23.6425 21.0877 23.5449 21.3164 23.353 21.4724L21.3961 22.6063L20.3864 23.1915L16.7774 25.283L13.1175 27.404C12.9204 27.4752 12.6899 27.4712 12.4944 27.3917L8.16417 24.9012L7.27961 26.4014L11.171 28.6419C11.2997 28.7151 11.4144 28.78 11.5085 28.8328C11.6541 28.9145 11.7534 28.9691 11.7885 28.9862C12.0651 29.1205 12.463 29.1987 12.8216 29.1987C13.1504 29.1987 13.4711 29.1383 13.7744 29.0195L24.4049 22.8631C25.0151 22.3903 25.374 21.6774 25.4063 20.905V9.13568Z" fill="#96BEDC"/>
</svg>
