<svg width="30" height="26" viewBox="0 0 30 26" fill="none" xmlns="http://www.w3.org/2000/svg">
<path d="M22.5074 7.91639C21.9641 7.60595 21.2656 7.60595 20.6447 7.91639L16.2985 10.4776L13.3492 12.1074L9.08056 14.6686C8.53728 14.9791 7.83878 14.9791 7.21789 14.6686L3.88058 12.6507C3.3373 12.3403 2.94924 11.7194 2.94924 11.0209V7.14027C2.94924 6.51938 3.25969 5.89848 3.88058 5.51042L7.21789 3.57012C7.76117 3.25968 8.45967 3.25968 9.08056 3.57012L12.4179 5.58804C12.9611 5.89848 13.3492 6.51938 13.3492 7.21789V9.77908L16.2985 8.07162V5.43281C16.2985 4.81192 15.988 4.19102 15.3671 3.80296L9.15818 0.155199C8.61489 -0.155249 7.91639 -0.155249 7.2955 0.155199L0.93134 3.88057C0.310447 4.19102 0 4.81192 0 5.43281V12.7283C0 13.3492 0.310447 13.9701 0.93134 14.3582L7.21789 18.0059C7.76117 18.3164 8.45967 18.3164 9.08056 18.0059L13.3492 15.5224L16.2985 13.8149L20.5671 11.3313C21.1104 11.0209 21.8089 11.0209 22.4298 11.3313L25.7671 13.2716C26.3104 13.5821 26.6984 14.203 26.6984 14.9015V18.7821C26.6984 19.403 26.388 20.0239 25.7671 20.4119L22.5074 22.3522C21.9641 22.6627 21.2656 22.6627 20.6447 22.3522L17.3074 20.4119C16.7641 20.1015 16.3761 19.4806 16.3761 18.7821V16.2985L13.4268 18.0059V20.5671C13.4268 21.188 13.7373 21.8089 14.3582 22.197L20.6447 25.8448C21.188 26.1552 21.8865 26.1552 22.5074 25.8448L28.7939 22.197C29.3372 21.8865 29.7253 21.2656 29.7253 20.5671V13.194C29.7253 12.5731 29.4148 11.9522 28.7939 11.5642L22.5074 7.91639Z" fill="#8247E5"/>
</svg>
