<svg width="20" height="17" viewBox="0 0 20 17" fill="none" xmlns="http://www.w3.org/2000/svg">
<path d="M13 6.6001L13.948 4.5361L16 3.6001L13.948 2.6641L13 0.600098L12.088 2.6641L10 3.6001L12.088 4.5361L13 6.6001Z" fill="#3B0065"/>
<path d="M2.7999 9.0002L3.2799 7.0802L5.1999 6.6002L3.2799 6.1202L2.7999 4.2002L2.3199 6.1202L0.399902 6.6002L2.3199 7.0802L2.7999 9.0002Z" fill="#3B0065"/>
<path d="M17.7999 4.2002C16.5159 4.2002 15.5919 5.5442 16.1799 6.7682L12.5679 10.3802C11.9439 10.0802 11.3799 10.2122 11.0199 10.3802L9.8079 9.1682C9.9279 8.9402 9.9999 8.6762 9.9999 8.4002C9.9999 7.4042 9.1959 6.6002 8.1999 6.6002C7.2039 6.6002 6.3999 7.4042 6.3999 8.4002C6.3999 8.6762 6.4719 8.9402 6.5799 9.1682L2.9679 12.7802C2.7399 12.6722 2.4759 12.6002 2.1999 12.6002C1.2039 12.6002 0.399902 13.4042 0.399902 14.4002C0.399902 15.3962 1.2039 16.2002 2.1999 16.2002C3.1959 16.2002 3.9999 15.3962 3.9999 14.4002C3.9999 14.1242 3.9279 13.8602 3.8199 13.6322L7.4319 10.0202C8.0559 10.3202 8.6199 10.1882 8.9799 10.0202L10.1919 11.2322C10.0719 11.4602 9.9999 11.7242 9.9999 12.0002C9.9999 12.9962 10.8039 13.8002 11.7999 13.8002C12.7959 13.8002 13.5999 12.9962 13.5999 12.0002C13.5999 11.7242 13.5279 11.4602 13.4199 11.2322L17.0319 7.6202C18.2679 8.2202 19.5999 7.2722 19.5999 6.0002C19.5999 5.0042 18.7959 4.2002 17.7999 4.2002Z" fill="#3B0065"/>
</svg>
