<svg width="24" height="24" viewBox="0 0 24 24" fill="none" xmlns="http://www.w3.org/2000/svg">
<path d="M15 9.59991L15.948 7.53591L18 6.59991L15.948 5.66391L15 3.59991L14.088 5.66391L12 6.59991L14.088 7.53591L15 9.59991Z" fill="#3B0065"/>
<path d="M4.80002 11.9999L5.28002 10.0799L7.20002 9.59989L5.28002 9.11989L4.80002 7.19989L4.32002 9.11989L2.40002 9.59989L4.32002 10.0799L4.80002 11.9999Z" fill="#3B0065"/>
<path d="M19.8 7.19989C18.516 7.19989 17.592 8.54389 18.18 9.76789L14.568 13.3799C13.944 13.0799 13.38 13.2119 13.02 13.3799L11.808 12.1679C11.928 11.9399 12 11.6759 12 11.3999C12 10.4039 11.196 9.59989 10.2 9.59989C9.20402 9.59989 8.40002 10.4039 8.40002 11.3999C8.40002 11.6759 8.47202 11.9399 8.58002 12.1679L4.96802 15.7799C4.74002 15.6719 4.47602 15.5999 4.20002 15.5999C3.20402 15.5999 2.40002 16.4039 2.40002 17.3999C2.40002 18.3959 3.20402 19.1999 4.20002 19.1999C5.19602 19.1999 6.00002 18.3959 6.00002 17.3999C6.00002 17.1239 5.92802 16.8599 5.82002 16.6319L9.43202 13.0199C10.056 13.3199 10.62 13.1879 10.98 13.0199L12.192 14.2319C12.072 14.4599 12 14.7239 12 14.9999C12 15.9959 12.804 16.7999 13.8 16.7999C14.796 16.7999 15.6 15.9959 15.6 14.9999C15.6 14.7239 15.528 14.4599 15.42 14.2319L19.032 10.6199C20.268 11.2199 21.6 10.2719 21.6 8.99989C21.6 8.00389 20.796 7.19989 19.8 7.19989Z" fill="#3B0065"/>
</svg>
