<svg width="368" height="368" viewBox="0 0 368 368" fill="none" xmlns="http://www.w3.org/2000/svg">
<g filter="url(#filter0_d_718_26509)">
<mask id="mask0_718_26509" style="mask-type:alpha" maskUnits="userSpaceOnUse" x="4" y="2" width="360" height="360">
<path d="M4 2H360C362.209 2 364 3.79086 364 6V358C364 360.209 362.209 362 360 362H4V2Z" fill="white"/>
</mask>
<g mask="url(#mask0_718_26509)">
<g filter="url(#filter1_d_718_26509)">
<path d="M4 2H360C362.209 2 364 3.79086 364 6V358C364 360.209 362.209 362 360 362H4V2Z" fill="white"/>
</g>
<mask id="mask1_718_26509" style="mask-type:alpha" maskUnits="userSpaceOnUse" x="-8" y="200" width="372" height="163">
<rect width="371.736" height="162.618" transform="matrix(-1 0 0 1 364 200.333)" fill="#C4C4C4"/>
</mask>
<g mask="url(#mask1_718_26509)">
<path d="M362.251 247.529L365.141 240.735L370.563 250.927L368.269 367.285H89.8758L13.1247 376.344L8.95255 367.285L11.6644 361.676L13.1247 359.125L15.6279 355.299L21.8861 357.212L28.9787 352.429L34.1938 342.226L37.5316 332.66H40.2434L43.5811 335.849L47.1274 347.327L51.2996 350.835L55.4717 343.501H61.9384L66.7364 335.849L70.6999 332.66L71.9515 324.689L73.4118 316.397L77.5839 315.471L80.5044 309.294L83.2163 311.147L86.1367 317.632L89.6831 319.587L94.0465 312.073L96.937 301.882L99.8276 303.426L102.099 309.294L106.641 318.25L109.325 317.632L112.216 318.25L115.726 314.235L118.41 304.971L123.985 303.426L130.385 311.147L133.482 309.294L136.579 316.397L140.502 315.471L142.98 309.294L149.174 318.25L152.064 314.235L158.052 318.25L161.149 305.588L164.246 311.147L170.027 309.294L173.537 316.397L178.493 303.735L182.209 298.485L185.306 285.824L188.816 287.059L190.881 279.647H194.597L196.662 288.294L200.172 298.485L203.682 294.779L206.779 296.323L209.876 302.191L215.657 294.162L218.961 297.559L224.948 291.073L227.839 279.647L231.142 273.779L236.923 274.706L240.02 277.485L242.911 274.706L246.628 288.603L251.996 272.235L255.299 279.029L257.777 277.485L261.287 272.235L264.797 284.588L267.274 304.353L270.784 294.162L274.088 293.235L276.566 288.603L279.25 290.765L284.205 297.868L288.747 299.103L292.257 301.265L297.006 297.868L300.723 299.103L304.439 301.265L307.949 290.765L312.904 295.088L317.24 293.235L321.37 279.029L325.705 263.588L330.867 258.647H334.79L340.984 264.515L344.288 263.588L346.559 252.471L350.482 254.015L352.753 250.927H355.85L358.534 244.75L362.251 247.529Z" fill="url(#paint0_linear_718_26509)" fill-opacity="0.2" stroke="#825F96"/>
<path d="M362.239 312.798L365.141 306.974L370.563 312.798V367.048H93.0038L13.959 373.154L18.3398 367.048L22.5119 360.399H28.7701L30.8561 353.384L49.0049 348.92L53.5942 341.918L55.0544 336.4L61.5212 327.817L66.5277 334.868L72.1601 336.4L78.6269 341.918L82.5904 348.92L88.4314 352.109L92.1863 340.998L96.119 335.481L98.6061 336.094L102.337 340.998L111.249 341.918L115.809 335.481L117.259 327.817H120.161L124.099 325.978L127.415 332.415L129.902 333.028L133.84 334.868L138.814 340.078L142.338 336.4L148.348 342.837L149.799 340.078L153.53 337.626L158.297 338.852L162.649 336.4L168.867 338.852L173.012 343.45L177.779 336.4L181.924 334.868L184.826 330.27L187.935 329.657L190.629 325.059L194.774 326.285H200.163L203.065 322.606L209.697 328.737L211.977 326.285L215.5 327.511H218.609L221.718 323.22L225.034 323.833L227.314 316.782L230.837 319.541L233.117 324.446H237.055L238.506 327.511L241.822 329.963L246.382 333.948L249.698 332.109L252.6 323.22L258.817 328.737H261.304L264.413 329.963L270.838 344.063H273.74L282.445 336.4L285.968 346.822L290.528 347.435L294.88 350.194L297.782 346.822H300.891L303.792 349.274H307.109L312.497 337.933L316.435 337.32L319.544 341.611L322.446 342.837L325.762 333.948L328.249 326.898L331.358 322.606H334.26L336.954 318.009L341.099 317.396L344.001 321.074L346.902 326.898L350.426 320.154L352.498 318.009H355.814L359.338 313.411L362.239 312.798Z" fill="url(#paint1_linear_718_26509)" fill-opacity="0.2" stroke="#5CD3B1"/>
</g>
<mask id="mask2_718_26509" style="mask-type:alpha" maskUnits="userSpaceOnUse" x="-211" y="2" width="585" height="361">
<rect width="583.69" height="360.951" transform="matrix(-1 0 0 1 373.189 2)" fill="#C4C4C4"/>
</mask>
<g mask="url(#mask2_718_26509)">
<path d="M365.062 93.4634L368.342 77.6816L374.495 101.354L371.892 371.639H55.953L-31.1492 392.682L-35.884 371.639L-32.8064 358.611L-31.1492 352.686L-28.3083 343.798L-21.2061 348.242L-13.157 337.132L-7.23849 313.43L-3.45065 291.21H-0.373016L3.41483 298.617L7.43939 325.281L12.1742 333.428L16.909 316.393H24.2479L29.6929 298.617L34.191 291.21L35.6114 272.694L37.2686 253.434L42.0034 251.281L45.3177 236.934L48.3954 241.239L51.7097 256.303L55.7343 260.843L60.6862 243.391L63.9666 219.718L67.247 223.305L69.8245 236.934L74.9794 257.738L78.0255 256.303L81.3059 257.738L85.2892 248.412L88.3354 226.891L94.6618 223.305L101.926 241.239L105.44 236.934L108.955 253.434L113.407 251.281L116.219 236.934L123.248 257.738L126.529 248.412L133.324 257.738L136.839 228.326L140.353 241.239L146.914 236.934L150.897 253.434L156.521 224.022L160.739 211.827L164.253 182.415L168.237 185.285L170.58 168.068H174.798L177.141 188.154L181.124 211.827L185.107 203.219L188.622 206.805L192.137 220.435L198.698 201.784L202.447 209.675L209.242 194.61L212.522 168.068L216.271 154.439L222.832 156.591L226.347 163.047L229.627 156.591L233.845 188.872L239.937 150.852L243.686 166.634L246.498 163.047L250.481 150.852L254.465 179.546L257.277 225.457L261.26 201.784L265.009 199.632L267.821 188.872L270.867 193.893L276.49 210.392L281.645 213.262L285.629 218.283L291.018 210.392L295.236 213.262L299.453 218.283L303.437 193.893L309.06 203.936L313.981 199.632L318.667 166.634L323.588 130.766L329.446 119.288H333.898L340.927 132.918L344.676 130.766L347.254 104.941L351.706 108.528L354.283 101.354H357.798L360.844 87.0073L365.062 93.4634Z" fill="url(#paint2_linear_718_26509)" fill-opacity="0.2" stroke="#825F96"/>
<path d="M370.425 251.631L374.981 238.704L383.495 251.631V372.048H-52.3213L-176.435 385.599L-169.557 372.048L-163.006 357.289H-153.179L-149.904 341.719L-121.407 331.811L-114.201 316.267L-111.908 304.02L-101.754 284.97L-93.8932 300.618L-85.0495 304.02L-74.8955 316.267L-68.6721 331.811L-59.5007 338.888L-53.6049 314.226L-47.4298 301.979L-43.5246 303.34L-37.6668 314.226L-23.6733 316.267L-16.5137 301.979L-14.2357 284.97H-9.67966L-3.49643 280.887L1.71048 295.175L5.61566 296.536L11.7989 300.618L19.6093 312.185L25.1416 304.02L34.5792 318.308L36.8572 312.185L42.715 306.742L50.1999 309.463L57.034 304.02L66.797 309.463L73.3056 319.669L80.7906 304.02L87.2992 300.618L91.8553 290.413L96.7368 289.052L100.967 278.846L107.476 281.568H115.937L120.493 273.403L130.907 287.011L134.487 281.568L140.019 284.289H144.901L149.782 274.764L154.989 276.125L158.569 260.476L164.101 266.599L167.681 277.485H173.864L176.142 284.289L181.349 289.732L188.509 298.577L193.716 294.495L198.272 274.764L208.035 287.011H211.94L216.821 289.732L226.91 321.029H231.466L245.134 304.02L250.666 327.153L257.826 328.514L264.66 334.637L269.216 327.153H274.097L278.653 332.596H283.86L292.322 307.422L298.505 306.061L303.386 315.586L307.942 318.308L313.149 298.577L317.055 282.928L321.936 273.403H326.492L330.723 263.198L337.231 261.837L341.787 270.001L346.343 282.928L351.876 267.96L355.13 263.198H360.337L365.869 252.992L370.425 251.631Z" fill="url(#paint3_linear_718_26509)" fill-opacity="0.2" stroke="#5CD3B1"/>
</g>
</g>
</g>
<defs>
<filter id="filter0_d_718_26509" x="0" y="0" width="368" height="368" filterUnits="userSpaceOnUse" color-interpolation-filters="sRGB">
<feFlood flood-opacity="0" result="BackgroundImageFix"/>
<feColorMatrix in="SourceAlpha" type="matrix" values="0 0 0 0 0 0 0 0 0 0 0 0 0 0 0 0 0 0 127 0" result="hardAlpha"/>
<feOffset dy="2"/>
<feGaussianBlur stdDeviation="2"/>
<feComposite in2="hardAlpha" operator="out"/>
<feColorMatrix type="matrix" values="0 0 0 0 0 0 0 0 0 0 0 0 0 0 0 0 0 0 0.1 0"/>
<feBlend mode="normal" in2="BackgroundImageFix" result="effect1_dropShadow_718_26509"/>
<feBlend mode="normal" in="SourceGraphic" in2="effect1_dropShadow_718_26509" result="shape"/>
</filter>
<filter id="filter1_d_718_26509" x="0" y="0" width="368" height="368" filterUnits="userSpaceOnUse" color-interpolation-filters="sRGB">
<feFlood flood-opacity="0" result="BackgroundImageFix"/>
<feColorMatrix in="SourceAlpha" type="matrix" values="0 0 0 0 0 0 0 0 0 0 0 0 0 0 0 0 0 0 127 0" result="hardAlpha"/>
<feOffset dy="2"/>
<feGaussianBlur stdDeviation="2"/>
<feComposite in2="hardAlpha" operator="out"/>
<feColorMatrix type="matrix" values="0 0 0 0 0 0 0 0 0 0 0 0 0 0 0 0 0 0 0.1 0"/>
<feBlend mode="normal" in2="BackgroundImageFix" result="effect1_dropShadow_718_26509"/>
<feBlend mode="normal" in="SourceGraphic" in2="effect1_dropShadow_718_26509" result="shape"/>
</filter>
<linearGradient id="paint0_linear_718_26509" x1="189.758" y1="240.735" x2="189.758" y2="376.344" gradientUnits="userSpaceOnUse">
<stop stop-color="#5B0090"/>
<stop offset="1" stop-color="#5B0090" stop-opacity="0"/>
</linearGradient>
<linearGradient id="paint1_linear_718_26509" x1="192.261" y1="306.974" x2="192.261" y2="373.154" gradientUnits="userSpaceOnUse">
<stop stop-color="#00C78E"/>
<stop offset="1" stop-color="#00C78E" stop-opacity="0"/>
</linearGradient>
<linearGradient id="paint2_linear_718_26509" x1="169.306" y1="77.6816" x2="169.306" y2="392.682" gradientUnits="userSpaceOnUse">
<stop stop-color="#5B0090"/>
<stop offset="1" stop-color="#5B0090" stop-opacity="0"/>
</linearGradient>
<linearGradient id="paint3_linear_718_26509" x1="103.53" y1="238.704" x2="103.53" y2="385.599" gradientUnits="userSpaceOnUse">
<stop stop-color="#00C78E"/>
<stop offset="1" stop-color="#00C78E" stop-opacity="0"/>
</linearGradient>
</defs>
</svg>
 