<svg width="24" height="24" viewBox="0 0 24 24" fill="none" xmlns="http://www.w3.org/2000/svg">
<path d="M12 2.40009C6.69602 2.40009 2.40002 6.69609 2.40002 12.0001C2.40002 17.3041 6.69602 21.6001 12 21.6001H19.8C20.796 21.6001 21.6 20.7961 21.6 19.8001V12.0001C21.6 6.69609 17.304 2.40009 12 2.40009ZM20.1 19.2001C20.1 19.6921 19.692 20.1001 19.2 20.1001C18.708 20.1001 18.3 19.6921 18.3 19.2001C18.3 18.7081 18.708 18.3001 19.2 18.3001C19.692 18.3001 20.1 18.7081 20.1 19.2001ZM12 19.8001C9.27602 19.8001 6.86402 18.3961 5.47202 16.2721L8.41202 13.3321L11.4 16.2601L16.2 11.4601V13.2001H18V8.40009H13.2V10.2001H14.916L11.388 13.7281L8.40002 10.8001L4.63202 14.5681C4.35602 13.7641 4.20002 12.9001 4.20002 12.0001C4.20002 7.70409 7.70402 4.20009 12 4.20009C16.296 4.20009 19.8 7.70409 19.8 12.0001C19.8 16.2961 16.296 19.8001 12 19.8001Z" fill="#3B0065"/>
</svg>
