<svg width="20" height="20" viewBox="0 0 20 20" fill="none" xmlns="http://www.w3.org/2000/svg">
<path d="M9.80014 2.0007C8.82604 2.02981 7.93111 2.21181 7.05249 2.55913C5.69031 3.09777 4.48763 4.01633 3.60202 5.19412C2.6644 6.4406 2.1172 7.9172 2.01514 9.47258C2.00272 9.66622 2 9.75742 2 10.0004C2 10.2433 2.00272 10.3345 2.01514 10.5281C2.13971 12.4273 2.92947 14.2035 4.25905 15.5742C5.00689 16.3449 5.9088 16.9619 6.89337 17.3768C7.71301 17.7218 8.58038 17.9263 9.4722 17.9849C9.66586 17.9973 9.75706 18 10 18C10.2429 18 10.3341 17.9973 10.5278 17.9849C11.3494 17.9309 12.1504 17.7532 12.9126 17.4552C14.2918 16.9165 15.5042 15.9948 16.398 14.8066C17.0709 13.9117 17.5479 12.8891 17.7966 11.8088C17.9072 11.3295 17.9682 10.8778 17.9953 10.3457C18.0016 10.2212 18.0016 9.77954 17.9953 9.65497C17.9794 9.34413 17.9561 9.09809 17.9169 8.82916C17.6744 7.17366 16.9122 5.63109 15.741 4.42691C14.6629 3.3182 13.3007 2.54827 11.8085 2.20405C11.3335 2.09462 10.8724 2.03175 10.3532 2.00614C10.2736 2.00226 9.88086 1.99837 9.80014 2.0007ZM10.0796 4.17544C11.0339 4.21347 11.928 4.46649 12.7418 4.92946C12.9044 5.02182 13.0426 5.10952 13.069 5.13669C13.107 5.17588 13.1221 5.21857 13.1194 5.27911C13.1159 5.35323 13.1008 5.37729 13.0115 5.44869C12.6351 5.751 12.2858 6.11307 11.9955 6.50191C11.7992 6.76464 11.6428 7.01416 11.4829 7.31957C11.453 7.37662 11.4359 7.39602 11.401 7.41387C11.3676 7.43095 11.3412 7.43599 11.2981 7.43444L11.2586 7.43328L11.158 7.38399C10.9947 7.30405 10.8755 7.25632 10.7218 7.20975C9.92393 6.96682 9.06161 7.0747 8.35529 7.50585C7.78869 7.852 7.35946 8.3759 7.13127 9.00069C6.89919 9.63673 6.89919 10.364 7.13127 11C7.179 11.13 7.21432 11.2111 7.28029 11.34C7.53837 11.8445 7.94935 12.2694 8.44882 12.5496C9.20326 12.9726 10.1184 13.035 10.9275 12.7195C11.0063 12.6889 11.0552 12.6672 11.158 12.6167L11.2586 12.5674L11.2981 12.5663C11.3412 12.5647 11.3676 12.5698 11.401 12.5868C11.4359 12.6047 11.453 12.6241 11.4829 12.6811C11.6428 12.9865 11.7992 13.2361 11.9955 13.4988C12.2858 13.8876 12.6351 14.2497 13.0115 14.552C13.0787 14.606 13.0946 14.6234 13.109 14.6603C13.121 14.6909 13.1237 14.7519 13.1144 14.7837C13.0973 14.8423 13.0721 14.8702 12.9902 14.9222C12.6417 15.1419 12.2948 15.3153 11.923 15.4558C11.0187 15.7969 10.0353 15.9068 9.07053 15.7744C8.28621 15.6669 7.53721 15.4019 6.85845 14.9913C6.33065 14.6723 5.85563 14.2699 5.44969 13.7976C5.00805 13.2838 4.65878 12.6955 4.4201 12.0629C4.1725 11.4063 4.04676 10.7125 4.04676 10.0004C4.04676 8.92657 4.33317 7.8943 4.88464 6.98312C5.20365 6.45534 5.60609 5.98035 6.07839 5.57443C6.59222 5.13281 7.18056 4.78354 7.81314 4.54488C8.39643 4.32485 9.01038 4.20105 9.64296 4.17583C9.75589 4.17117 9.96973 4.17117 10.0796 4.17544ZM14.3982 7.1333C14.6334 7.28581 14.8484 7.46587 15.0389 7.67C15.538 8.20359 15.8523 8.88621 15.9315 9.6084C15.949 9.76751 15.9513 9.81136 15.9513 10.0081C15.9513 10.2049 15.949 10.2487 15.9315 10.4078C15.8931 10.7579 15.7976 11.1056 15.6521 11.4277C15.3886 12.0086 14.9652 12.5061 14.4323 12.86C14.3345 12.9252 14.3415 12.9217 14.3264 12.9128C14.298 12.8965 14.1735 12.8123 14.1219 12.7747C13.9581 12.6555 13.7815 12.4987 13.6387 12.3462C13.1396 11.8122 12.8253 11.13 12.7461 10.4078C12.7286 10.2487 12.7263 10.2049 12.7263 10.0081C12.7263 9.81136 12.7286 9.76751 12.7461 9.6084C12.8152 8.97818 13.0639 8.3759 13.4613 7.87568C13.6624 7.62227 13.9201 7.38011 14.1797 7.20005C14.2523 7.14999 14.3326 7.09799 14.338 7.0976C14.3411 7.0976 14.3683 7.11351 14.3982 7.1333Z" fill="#3B0065"/>
</svg>
