<svg width="24" height="24" viewBox="0 0 24 24" fill="none" xmlns="http://www.w3.org/2000/svg">
<path d="M19.728 18.4559C20.148 17.8079 20.4 17.0279 20.4 16.1999C20.4 13.8839 18.5159 11.9999 16.2 11.9999C13.884 11.9999 12 13.8839 12 16.1999C12 18.5159 13.884 20.3999 16.2 20.3999C17.028 20.3999 17.808 20.1479 18.4559 19.7279L21.528 22.7999L22.7999 21.5279L19.728 18.4559ZM16.2 18.5999C14.88 18.5999 13.8 17.5199 13.8 16.1999C13.8 14.8799 14.88 13.7999 16.2 13.7999C17.52 13.7999 18.6 14.8799 18.6 16.1999C18.6 17.5199 17.52 18.5999 16.2 18.5999ZM21.336 2.3999L22.7999 3.4439L18.1439 10.5239C17.5319 10.3079 16.884 10.1999 16.2 10.1999L21.336 2.3999ZM16.2 10.1999C15.504 10.1999 14.844 10.3199 14.22 10.5359L13.2839 9.2159L9.19195 15.6479L6.21595 12.0839L2.66395 17.8559L1.19995 16.7999L5.99995 8.9999L8.99995 12.5999L13.2 5.9999L16.2 10.1999Z" fill="#3B0065"/>
</svg>
