<svg width="18" height="18" viewBox="0 0 18 18" fill="none" xmlns="http://www.w3.org/2000/svg">
<path d="M8.84999 8.175C7.14749 7.7325 6.59999 7.275 6.59999 6.5625C6.59999 5.745 7.35749 5.175 8.62499 5.175C9.95999 5.175 10.455 5.8125 10.5 6.75H12.1575C12.105 5.46 11.3175 4.275 9.74999 3.8925V2.25H7.49999V3.87C6.04499 4.185 4.87499 5.13 4.87499 6.5775C4.87499 8.31 6.30749 9.1725 8.39999 9.675C10.275 10.125 10.65 10.785 10.65 11.4825C10.65 12 10.2825 12.825 8.62499 12.825C7.07999 12.825 6.47249 12.135 6.38999 11.25H4.73999C4.82999 12.8925 6.05999 13.815 7.49999 14.1225V15.75H9.74999V14.1375C11.2125 13.86 12.375 13.0125 12.375 11.475C12.375 9.345 10.5525 8.6175 8.84999 8.175Z" fill="#3B0065"/>
</svg>
