<svg width="25" height="26" viewBox="0 0 25 26" fill="none" xmlns="http://www.w3.org/2000/svg">
<path d="M12.1877 0.501099C10.6657 0.546576 9.26737 0.830957 7.89451 1.37365C5.76611 2.21527 3.88692 3.65052 2.50315 5.49081C1.03813 7.43843 0.183128 9.74562 0.023649 12.1759C0.00424469 12.4785 0 12.621 0 13.0005C0 13.3801 0.00424469 13.5226 0.023649 13.8252C0.218298 16.7927 1.45229 19.568 3.52976 21.7097C4.69826 22.9139 6.1075 23.878 7.6459 24.5262C8.92658 25.0652 10.2818 25.3848 11.6753 25.4764C11.9779 25.4958 12.1204 25.5 12.5 25.5C12.8796 25.5 13.0221 25.4958 13.3247 25.4764C14.6084 25.3921 15.86 25.1144 17.0509 24.6487C19.206 23.8071 21.1003 22.367 22.4968 20.5103C23.5483 19.112 24.2936 17.5143 24.6823 15.8262C24.8551 15.0773 24.9503 14.3715 24.9927 13.5402C25.0024 13.3456 25.0024 12.6555 24.9927 12.4609C24.9679 11.9752 24.9315 11.5908 24.8702 11.1706C24.4912 8.58384 23.3003 6.17357 21.4702 4.29205C19.7857 2.55968 17.6573 1.35667 15.3257 0.81883C14.5835 0.647838 13.8632 0.549608 13.0518 0.509588C12.9275 0.503524 12.3138 0.497461 12.1877 0.501099ZM12.6243 3.89913C14.1154 3.95855 15.5125 4.35389 16.7841 5.07728C17.0382 5.22159 17.2541 5.35863 17.2953 5.40107C17.3547 5.46231 17.3784 5.52901 17.3741 5.62361C17.3687 5.73942 17.345 5.77701 17.2055 5.88858C16.6173 6.36094 16.0716 6.92667 15.618 7.53424C15.3112 7.94474 15.0668 8.33463 14.817 8.81183C14.7703 8.90097 14.7436 8.93129 14.689 8.95918C14.6369 8.98586 14.5957 8.99374 14.5284 8.99131L14.4665 8.9895L14.3094 8.91249C14.0542 8.78758 13.868 8.713 13.6279 8.64023C12.3811 8.26065 11.0338 8.42922 9.93014 9.10288C9.04482 9.64376 8.37416 10.4623 8.01761 11.4386C7.65499 12.4324 7.65499 13.5687 8.01761 14.5625C8.09219 14.7657 8.14738 14.8924 8.25046 15.0937C8.65371 15.882 9.29587 16.5459 10.0763 16.9837C11.2551 17.6446 12.6849 17.7423 13.9493 17.2493C14.0724 17.2014 14.1488 17.1674 14.3094 17.0886L14.4665 17.0116L14.5284 17.0098C14.5957 17.0074 14.6369 17.0152 14.689 17.0419C14.7436 17.0698 14.7703 17.1001 14.817 17.1893C15.0668 17.6665 15.3112 18.0564 15.618 18.4669C16.0716 19.0744 16.6173 19.6402 17.2055 20.1125C17.3104 20.1968 17.3353 20.2241 17.3577 20.2817C17.3765 20.3296 17.3808 20.4248 17.3662 20.4745C17.3396 20.5661 17.3001 20.6097 17.1722 20.691C16.6277 21.0342 16.0855 21.3052 15.5046 21.5247C14.0918 22.0577 12.5552 22.2293 11.0477 22.0225C9.82221 21.8546 8.65189 21.4404 7.59132 20.7989C6.76664 20.3005 6.02443 19.6717 5.39015 18.9338C4.70008 18.1309 4.15434 17.2117 3.78141 16.2233C3.39454 15.1974 3.19807 14.1132 3.19807 13.0005C3.19807 11.3228 3.64558 9.70985 4.50725 8.28612C5.0057 7.46148 5.63452 6.71929 6.37249 6.08504C7.17534 5.39501 8.09462 4.84929 9.08303 4.47638C9.99442 4.13257 10.9537 3.93915 11.9421 3.89973C12.1186 3.89246 12.4527 3.89246 12.6243 3.89913ZM19.3722 8.52078C19.7396 8.75908 20.0756 9.04043 20.3733 9.35937C21.1531 10.1931 21.6443 11.2597 21.768 12.3881C21.7953 12.6367 21.7989 12.7053 21.7989 13.0127C21.7989 13.3201 21.7953 13.3886 21.768 13.6372C21.7079 14.1842 21.5588 14.7275 21.3314 15.2307C20.9196 16.1384 20.2581 16.9158 19.4255 17.4688C19.2727 17.5707 19.2836 17.5652 19.26 17.5513C19.2157 17.5258 19.0211 17.3942 18.9404 17.3354C18.6845 17.1492 18.4086 16.9043 18.1855 16.666C17.4056 15.8316 16.9145 14.7657 16.7908 13.6372C16.7635 13.3886 16.7598 13.3201 16.7598 13.0127C16.7598 12.7053 16.7635 12.6367 16.7908 12.3881C16.8987 11.4034 17.2874 10.4623 17.9083 9.68074C18.2224 9.28479 18.6251 8.90642 19.0308 8.62507C19.1441 8.54685 19.2697 8.4656 19.2782 8.465C19.283 8.465 19.3255 8.48986 19.3722 8.52078Z" fill="white"/>
</svg>
