<svg width="24" height="24" viewBox="0 0 24 24" fill="none" xmlns="http://www.w3.org/2000/svg">
<path d="M17.34 13.032L17.652 15.552C17.724 16.104 17.532 16.656 17.136 17.052L12.876 21.312L11.184 16.224L7.78802 12.828L2.70002 11.124L6.96002 6.86403C7.35602 6.46803 7.90802 6.27603 8.46002 6.34803L10.98 6.66003C16.704 0.936031 21.36 2.64003 21.36 2.64003C21.36 2.64003 23.064 7.29603 17.34 13.032ZM12.24 7.94403C11.016 9.16803 10.044 10.872 9.48002 11.964L12.024 14.508C13.116 13.956 14.832 12.984 16.056 11.748C19.416 8.40003 19.848 5.60403 19.8 4.20003C18.396 4.15203 15.6 4.58403 12.24 7.94403ZM16.8 9.00003C16.8 8.01603 15.984 7.20003 15 7.20003C14.004 7.20003 13.2 8.01603 13.2 9.00003C13.2 9.98403 14.004 10.8 15 10.8C15.984 10.8 16.8 9.99603 16.8 9.00003ZM9.58802 8.30403L8.23202 8.13603L6.02402 10.332L7.96802 10.98C8.36402 10.224 8.91602 9.25203 9.58802 8.30403ZM13.02 16.032L13.668 17.976L15.864 15.78L15.696 14.412C14.748 15.084 13.776 15.636 13.02 16.032ZM6.30002 15C5.55602 15 4.88402 15.3 4.39202 15.792C2.92802 17.256 2.40002 21.6 2.40002 21.6C2.40002 21.6 6.74402 21.072 8.20802 19.608C8.70003 19.116 9.00002 18.444 9.00002 17.7C9.00002 16.212 7.78802 15 6.30002 15ZM6.93602 18.336C6.40802 18.864 4.69202 19.308 4.69202 19.308C4.69202 19.308 5.13602 17.592 5.66402 17.064C6.01202 16.716 6.58802 16.716 6.93602 17.064C7.28402 17.412 7.28402 17.988 6.93602 18.336Z" fill="#3B0065"/>
</svg>
